<?xml version="1.0" encoding="UTF-8"?>
<svg id="Layer_1" data-name="Layer 1" xmlns="http://www.w3.org/2000/svg" xmlns:xlink="http://www.w3.org/1999/xlink" viewBox="0 0 4000 4000">
  <defs>
    <style>
      .cls-1 {
        clip-path: url(#clippath);
      }

      .cls-3 {
        clip-rule: evenodd;
        fill: none;
      }

      .cls-4 {
        clip-path: url(#clippath-1);
      }

      .cls-5 {
        fill: #5c3bc5;
      }

      .cls-5, .cls-6, .cls-7, .cls-8, .cls-9, .cls-10, .cls-11, .cls-12, .cls-13, .cls-14, .cls-15, .cls-16, .cls-17, .cls-18, .cls-19, .cls-20, .cls-21, .cls-22, .cls-23, .cls-24, .cls-25, .cls-26, .cls-27, .cls-28, .cls-29, .cls-30, .cls-31, .cls-32, .cls-33, .cls-34, .cls-35, .cls-36, .cls-37, .cls-38, .cls-39, .cls-40, .cls-41, .cls-42, .cls-43, .cls-44, .cls-45, .cls-46, .cls-47, .cls-48, .cls-49, .cls-50, .cls-51, .cls-52, .cls-53, .cls-54, .cls-55, .cls-56, .cls-57, .cls-58, .cls-59, .cls-60, .cls-61, .cls-62, .cls-63, .cls-64, .cls-65, .cls-66, .cls-67, .cls-68, .cls-69, .cls-70, .cls-71, .cls-72, .cls-73, .cls-74, .cls-75, .cls-76, .cls-77, .cls-78, .cls-79, .cls-80, .cls-81, .cls-82, .cls-83, .cls-84, .cls-85, .cls-86, .cls-87, .cls-88, .cls-89, .cls-90, .cls-91, .cls-92, .cls-93, .cls-94, .cls-95, .cls-96, .cls-97, .cls-98, .cls-99, .cls-100, .cls-101, .cls-102, .cls-103, .cls-104, .cls-105, .cls-106, .cls-107, .cls-108, .cls-109, .cls-110, .cls-111, .cls-112, .cls-113, .cls-114, .cls-115, .cls-116, .cls-117, .cls-118, .cls-119, .cls-120, .cls-121, .cls-122, .cls-123, .cls-124, .cls-125, .cls-126, .cls-127, .cls-128, .cls-129, .cls-130, .cls-131, .cls-132, .cls-133, .cls-134, .cls-135, .cls-136, .cls-137, .cls-138, .cls-139, .cls-140, .cls-141, .cls-142, .cls-143, .cls-144, .cls-145, .cls-146, .cls-147, .cls-148, .cls-149, .cls-150, .cls-151, .cls-152, .cls-153, .cls-154, .cls-155, .cls-156, .cls-157, .cls-158, .cls-159, .cls-160, .cls-161, .cls-162, .cls-163, .cls-164, .cls-165, .cls-166, .cls-167, .cls-168, .cls-169, .cls-170, .cls-171, .cls-172, .cls-173, .cls-174, .cls-175, .cls-176, .cls-177, .cls-178, .cls-179, .cls-180, .cls-181, .cls-182, .cls-183, .cls-184, .cls-185, .cls-186, .cls-187, .cls-188, .cls-189, .cls-190, .cls-191, .cls-192, .cls-193 {
        fill-rule: evenodd;
      }

      .cls-6 {
        fill: #5c3bc4;
      }

      .cls-7 {
        fill: #4b2dad;
      }

      .cls-8 {
        fill: #4b2dac;
      }

      .cls-9 {
        fill: #4b2cac;
      }

      .cls-10 {
        fill: #5939c0;
      }

      .cls-11 {
        fill: #5939c1;
      }

      .cls-12 {
        fill: #5b3ac3;
      }

      .cls-13 {
        fill: #5b3bc4;
      }

      .cls-14 {
        fill: #5b3bc3;
      }

      .cls-15 {
        fill: #6443d1;
      }

      .cls-16 {
        fill: #6442d1;
      }

      .cls-17 {
        fill: #6442d0;
      }

      .cls-18 {
        fill: #5938c0;
      }

      .cls-19 {
        fill: #5838bf;
      }

      .cls-20 {
        fill: #5838c0;
      }

      .cls-21 {
        fill: #5636bc;
      }

      .cls-22 {
        fill: #5636bd;
      }

      .cls-23 {
        fill: #5637bd;
      }

      .cls-24 {
        fill: #8462f0;
      }

      .cls-25 {
        fill: #5738be;
      }

      .cls-26 {
        fill: #5737be;
      }

      .cls-27 {
        fill: #5737bd;
      }

      .cls-28 {
        fill: #8463f0;
      }

      .cls-29 {
        fill: #5d3dc7;
      }

      .cls-30 {
        fill: #5d3cc6;
      }

      .cls-31 {
        fill: #5c3cc5;
      }

      .cls-32 {
        fill: #5c3cc6;
      }

      .cls-33 {
        fill: #6341ce;
      }

      .cls-34 {
        fill: #6341cf;
      }

      .cls-35 {
        fill: #6342cf;
      }

      .cls-36 {
        fill: #6342d0;
      }

      .cls-37 {
        fill: #5a39c2;
      }

      .cls-38 {
        fill: #5a39c1;
      }

      .cls-39 {
        fill: #5a3ac2;
      }

      .cls-40 {
        fill: #5a3ac3;
      }

      .cls-41 {
        fill: #4c2eae;
      }

      .cls-42 {
        fill: #4d2eaf;
      }

      .cls-43 {
        fill: #5536bb;
      }

      .cls-44 {
        fill: #5536bc;
      }

      .cls-45 {
        fill: #6140cc;
      }

      .cls-46 {
        fill: #6140cd;
      }

      .cls-47 {
        fill: #613fcc;
      }

      .cls-48 {
        fill: #603fcb;
      }

      .cls-49 {
        fill: #603fca;
      }

      .cls-50 {
        fill: #6241ce;
      }

      .cls-51 {
        fill: #4a2cab;
      }

      .cls-52 {
        fill: #7552e9;
      }

      .cls-53 {
        fill: #7551e9;
      }

      .cls-54 {
        fill: #5e3ec8;
      }

      .cls-55 {
        fill: #5e3dc7;
      }

      .cls-56 {
        fill: #5e3dc8;
      }

      .cls-57 {
        fill: #7955eb;
      }

      .cls-58 {
        fill: #7956eb;
      }

      .cls-59 {
        fill: #7a56eb;
      }

      .cls-60 {
        fill: #7a57ec;
      }

      .cls-61 {
        fill: #7a57eb;
      }

      .cls-62 {
        fill: #7652e9;
      }

      .cls-63 {
        fill: #7652ea;
      }

      .cls-64 {
        fill: #7653ea;
      }

      .cls-65 {
        fill: #7754ea;
      }

      .cls-66 {
        fill: #7753ea;
      }

      .cls-67 {
        fill: #6240cd;
      }

      .cls-68 {
        fill: #4d2faf;
      }

      .cls-69 {
        fill: #4d2fb0;
      }

      .cls-70 {
        fill: #4c2dad;
      }

      .cls-71 {
        fill: #5f3eca;
      }

      .cls-72 {
        fill: #5f3ec9;
      }

      .cls-73 {
        fill: #5132b4;
      }

      .cls-74 {
        fill: #5132b5;
      }

      .cls-75 {
        fill: #5132b6;
      }

      .cls-76 {
        fill: #5031b4;
      }

      .cls-77 {
        fill: #5031b3;
      }

      .cls-78 {
        fill: #5032b4;
      }

      .cls-79 {
        fill: #5333b7;
      }

      .cls-80 {
        fill: #7855ea;
      }

      .cls-81 {
        fill: #7855eb;
      }

      .cls-82 {
        fill: #7854ea;
      }

      .cls-83 {
        fill: #8361ef;
      }

      .cls-84 {
        fill: #4e2fb1;
      }

      .cls-85 {
        fill: #4e2fb0;
      }

      .cls-86 {
        fill: #8362f0;
      }

      .cls-87 {
        fill: #4e30b1;
      }

      .cls-88 {
        fill: #7c5aec;
      }

      .cls-89 {
        fill: #7c59ec;
      }

      .cls-90 {
        fill: #5233b6;
      }

      .cls-91 {
        fill: #5233b7;
      }

      .cls-92 {
        fill: #4f31b3;
      }

      .cls-93 {
        fill: #4f30b2;
      }

      .cls-94 {
        fill: #4f30b3;
      }

      .cls-95 {
        fill: #7b58ec;
      }

      .cls-96 {
        fill: #7b59ec;
      }

      .cls-97 {
        fill: #5535ba;
      }

      .cls-98 {
        fill: #5535bb;
      }

      .cls-99 {
        fill: #704ce1;
      }

      .cls-100 {
        fill: #704de1;
      }

      .cls-101 {
        fill: #704de2;
      }

      .cls-102 {
        fill: #815fee;
      }

      .cls-103 {
        fill: #815fef;
      }

      .cls-104 {
        fill: #8261ef;
      }

      .cls-105 {
        fill: #8969f2;
      }

      .cls-106 {
        fill: #6d4add;
      }

      .cls-107 {
        fill: #6d4ade;
      }

      .cls-108 {
        fill: #8968f2;
      }

      .cls-109 {
        fill: #5435ba;
      }

      .cls-110 {
        fill: #5435b9;
      }

      .cls-111 {
        fill: #5334b8;
      }

      .cls-112 {
        fill: #5334b9;
      }

      .cls-113 {
        fill: #8867f2;
      }

      .cls-114 {
        fill: #8868f2;
      }

      .cls-115 {
        fill: #5434b9;
      }

      .cls-116 {
        fill: #8a6af3;
      }

      .cls-117 {
        fill: #8a69f3;
      }

      .cls-118 {
        fill: #714ee4;
      }

      .cls-119 {
        fill: #714de3;
      }

      .cls-120 {
        fill: #714ee3;
      }

      .cls-121 {
        fill: #724ee4;
      }

      .cls-122 {
        fill: #724ee5;
      }

      .cls-123 {
        fill: #724fe5;
      }

      .cls-124 {
        fill: #6e4be0;
      }

      .cls-125 {
        fill: #6e4bdf;
      }

      .cls-126 {
        fill: #6e4bde;
      }

      .cls-127 {
        fill: #6f4be0;
      }

      .cls-128 {
        fill: #6f4ce1;
      }

      .cls-129 {
        fill: #6f4ce0;
      }

      .cls-130 {
        fill: #7e5ced;
      }

      .cls-131 {
        fill: #6b48da;
      }

      .cls-132 {
        fill: #6b48db;
      }

      .cls-133 {
        fill: #7450e7;
      }

      .cls-134 {
        fill: #7450e8;
      }

      .cls-135 {
        fill: #7451e8;
      }

      .cls-136 {
        fill: #734fe6;
      }

      .cls-137 {
        fill: #6645d4;
      }

      .cls-138 {
        fill: #6543d2;
      }

      .cls-139 {
        fill: #6543d1;
      }

      .cls-140 {
        fill: #8160ef;
      }

      .cls-141 {
        fill: #8260ef;
      }

      .cls-142 {
        fill: #6644d4;
      }

      .cls-143 {
        fill: #6644d3;
      }

      .cls-144 {
        fill: #7f5ced;
      }

      .cls-145 {
        fill: #7f5dee;
      }

      .cls-146 {
        fill: #6544d3;
      }

      .cls-147 {
        fill: #6544d2;
      }

      .cls-148 {
        fill: #6846d7;
      }

      .cls-149 {
        fill: #6846d6;
      }

      .cls-150 {
        fill: #6845d6;
      }

      .cls-151 {
        fill: #6c49db;
      }

      .cls-152 {
        fill: #6c49dc;
      }

      .cls-153 {
        fill: #6c4add;
      }

      .cls-154 {
        fill: #7e5bed;
      }

      .cls-155 {
        fill: #6b49db;
      }

      .cls-156 {
        fill: #805dee;
      }

      .cls-157 {
        fill: #7d5bed;
      }

      .cls-158 {
        fill: #7d5aed;
      }

      .cls-159 {
        fill: #805eee;
      }

      .cls-160 {
        fill: #8e6ff5;
      }

      .cls-161 {
        fill: #8e6ef5;
      }

      .cls-162 {
        fill: #8e6ef4;
      }

      .cls-163 {
        fill: #8f70f5;
      }

      .cls-164 {
        fill: #8f6ff5;
      }

      .cls-165 {
        fill: #8d6ef4;
      }

      .cls-166 {
        fill: #8563f0;
      }

      .cls-167 {
        fill: #8766f1;
      }

      .cls-168 {
        fill: #8767f2;
      }

      .cls-169 {
        fill: #8665f1;
      }

      .cls-170 {
        fill: #8564f1;
      }

      .cls-171 {
        fill: #8564f0;
      }

      .cls-172 {
        fill: #8666f1;
      }

      .cls-173 {
        fill: #8b6bf3;
      }

      .cls-174 {
        fill: #8b6af3;
      }

      .cls-175 {
        fill: #8c6df4;
      }

      .cls-176 {
        fill: #8c6cf3;
      }

      .cls-177 {
        fill: #8c6cf4;
      }

      .cls-178 {
        fill: #8d6df4;
      }

      .cls-179 {
        fill: #9070f5;
      }

      .cls-180 {
        fill: #9071f5;
      }

      .cls-181 {
        fill: #9071f6;
      }

      .cls-182 {
        fill: #9171f6;
      }

      .cls-183 {
        fill: #9172f6;
      }

      .cls-184 {
        fill: #7350e7;
      }

      .cls-185 {
        fill: #6a47d8;
      }

      .cls-186 {
        fill: #6a47d9;
      }

      .cls-187 {
        fill: #6946d7;
      }

      .cls-188 {
        fill: #6947d8;
      }

      .cls-189 {
        fill: #6947d7;
      }

      .cls-190 {
        fill: #6745d5;
      }

      .cls-191 {
        fill: #6745d4;
      }

      .cls-192 {
        fill: #6a48d9;
      }

      .cls-193 {
        fill: #6a48da;
      }
    </style>
    <clipPath id="clippath">
      <path class="cls-3" d="m2493.73,2457.97c141.41-81.93,189.67-263.74,108.86-404.03-81.93-141.41-263.74-189.67-404.03-108.86l-692.46,399.54c-141.41,81.93-189.67,263.74-108.86,404.03,81.93,141.41,263.74,189.67,404.03,108.86l692.46-399.54Z"/>
    </clipPath>
    <clipPath id="clippath-1">
      <path class="cls-3" d="m2493.73,1943.96l-692.46-399.54c-140.29-81.93-323.22-32.55-404.03,107.74-80.81,140.29-32.55,323.22,108.86,404.03l535.33,309.75c62.85,33.67,105.5,99.88,105.5,176.2,0,65.09-31.42,123.45-79.68,159.37l-4.49,4.49,448.92-260.37c35.91-24.69,67.34-57.24,90.91-97.64,80.81-140.29,32.55-323.22-108.86-404.03h0Zm-299.65-797.95l-439.94,253.64,437.69,252.52c44.89,26.93,97.64,42.65,153.75,42.65,163.85,0,296.29-132.43,296.29-295.16s-132.43-296.29-296.29-296.29c-54.99,0-107.74,15.71-151.51,42.65h0Z"/>
    </clipPath>
  </defs>
  <g>
    <g class="cls-1">
      <polyline class="cls-53" points="1208.7 2765.48 1400.62 2350.23 2427.52 2823.84 2236.73 3239.09"/>
      <polyline class="cls-53" points="1399.49 2350.23 1400.62 2349.11 2428.64 2822.72 2427.52 2824.96"/>
      <polyline class="cls-53" points="1400.62 2349.11 1401.74 2346.87 2429.76 2821.6 2428.64 2823.84"/>
      <polyline class="cls-135" points="1400.62 2347.99 1401.74 2345.74 2429.76 2820.48 2428.64 2822.72"/>
      <polyline class="cls-134" points="1401.74 2346.87 1402.86 2344.62 2430.88 2819.35 2429.76 2820.48"/>
      <polyline class="cls-134" points="1402.86 2345.74 1402.86 2343.5 2430.88 2817.11 2429.76 2819.35"/>
      <polyline class="cls-134" points="1402.86 2343.5 1403.98 2342.38 2432.01 2815.99 2430.88 2818.23"/>
      <polyline class="cls-133" points="1403.98 2342.38 1403.98 2340.13 2432.01 2814.86 2432.01 2817.11"/>
      <polyline class="cls-133" points="1403.98 2341.26 1405.11 2339.01 2433.13 2813.74 2432.01 2815.99"/>
      <polyline class="cls-184" points="1405.11 2340.13 1406.23 2337.89 2433.13 2812.62 2433.13 2814.86"/>
      <polyline class="cls-184" points="1405.11 2339.01 1406.23 2336.77 2434.25 2811.5 2433.13 2812.62"/>
      <polyline class="cls-136" points="1406.23 2337.89 1407.35 2335.64 2435.37 2809.25 2434.25 2811.5"/>
      <polyline class="cls-136" points="1406.23 2335.64 1407.35 2334.52 2435.37 2808.13 2434.25 2810.37"/>
      <polyline class="cls-136" points="1407.35 2334.52 1408.47 2332.28 2436.49 2807.01 2435.37 2809.25"/>
      <polyline class="cls-136" points="1407.35 2333.4 1408.47 2331.16 2436.49 2805.89 2435.37 2808.13"/>
      <polyline class="cls-123" points="1408.47 2332.28 1409.6 2330.03 2437.62 2804.76 2436.49 2805.89"/>
      <polyline class="cls-123" points="1409.6 2331.16 1409.6 2328.91 2437.62 2802.52 2436.49 2804.76"/>
      <polyline class="cls-123" points="1409.6 2328.91 1410.72 2327.79 2438.74 2801.4 2437.62 2803.64"/>
      <polyline class="cls-122" points="1410.72 2327.79 1410.72 2325.54 2438.74 2800.27 2438.74 2802.52"/>
      <polyline class="cls-121" points="1410.72 2326.67 1411.84 2324.42 2439.86 2799.15 2438.74 2801.4"/>
      <polyline class="cls-121" points="1411.84 2325.54 1412.96 2323.3 2439.86 2798.03 2439.86 2799.15"/>
      <polyline class="cls-118" points="1411.84 2324.42 1412.96 2322.18 2440.98 2795.78 2439.86 2798.03"/>
      <polyline class="cls-118" points="1412.96 2322.18 1414.08 2321.05 2442.11 2794.66 2440.98 2796.91"/>
      <polyline class="cls-120" points="1412.96 2321.05 1414.08 2318.81 2442.11 2793.54 2440.98 2795.78"/>
      <polyline class="cls-120" points="1414.08 2319.93 1415.21 2317.69 2443.23 2792.42 2442.11 2794.66"/>
      <polyline class="cls-119" points="1414.08 2318.81 1415.21 2316.57 2443.23 2791.3 2442.11 2792.42"/>
      <polyline class="cls-119" points="1415.21 2317.69 1416.33 2315.44 2444.35 2789.05 2443.23 2791.3"/>
      <polyline class="cls-101" points="1416.33 2315.44 1416.33 2314.32 2444.35 2787.93 2443.23 2790.17"/>
      <polyline class="cls-101" points="1416.33 2314.32 1417.45 2312.08 2445.47 2786.81 2444.35 2789.05"/>
      <polyline class="cls-101" points="1417.45 2313.2 1418.57 2310.95 2445.47 2785.68 2445.47 2787.93"/>
      <polyline class="cls-101" points="1417.45 2312.08 1418.57 2309.83 2446.6 2784.56 2445.47 2786.81"/>
      <polyline class="cls-100" points="1418.57 2310.95 1419.7 2308.71 2447.72 2783.44 2446.6 2784.56"/>
      <polyline class="cls-99" points="1418.57 2309.83 1419.7 2307.59 2447.72 2781.19 2446.6 2783.44"/>
      <polyline class="cls-128" points="1419.7 2307.59 1420.82 2306.46 2448.84 2780.07 2447.72 2782.32"/>
      <polyline class="cls-128" points="1419.7 2306.46 1420.82 2304.22 2448.84 2778.95 2447.72 2781.19"/>
      <polyline class="cls-129" points="1420.82 2305.34 1421.94 2303.1 2449.96 2777.83 2448.84 2780.07"/>
      <polyline class="cls-129" points="1421.94 2304.22 1421.94 2301.98 2449.96 2776.71 2448.84 2777.83"/>
      <polyline class="cls-129" points="1421.94 2303.1 1423.06 2300.85 2451.08 2774.46 2449.96 2776.71"/>
      <polyline class="cls-127" points="1423.06 2300.85 1423.06 2299.73 2451.08 2773.34 2451.08 2775.58"/>
      <polyline class="cls-124" points="1423.06 2299.73 1424.18 2297.49 2452.21 2772.22 2451.08 2774.46"/>
      <polyline class="cls-125" points="1424.18 2298.61 1425.31 2296.36 2452.21 2771.09 2452.21 2773.34"/>
      <polyline class="cls-125" points="1424.18 2297.49 1425.31 2295.24 2453.33 2769.97 2452.21 2771.09"/>
      <polyline class="cls-125" points="1425.31 2296.36 1426.43 2294.12 2454.45 2767.73 2453.33 2769.97"/>
      <polyline class="cls-125" points="1425.31 2294.12 1426.43 2293 2454.45 2766.61 2453.33 2768.85"/>
      <polyline class="cls-126" points="1426.43 2293 1427.55 2290.75 2455.57 2765.48 2454.45 2767.73"/>
      <polyline class="cls-107" points="1426.43 2291.87 1427.55 2289.63 2455.57 2764.36 2454.45 2766.61"/>
      <polyline class="cls-107" points="1427.55 2290.75 1428.67 2288.51 2456.7 2763.24 2455.57 2764.36"/>
      <polyline class="cls-107" points="1428.67 2289.63 1428.67 2287.39 2456.7 2760.99 2455.57 2763.24"/>
      <polyline class="cls-106" points="1428.67 2287.39 1429.8 2286.26 2457.82 2759.87 2456.7 2762.12"/>
      <polyline class="cls-106" points="1429.8 2286.26 1429.8 2284.02 2457.82 2758.75 2457.82 2760.99"/>
      <polyline class="cls-106" points="1429.8 2285.14 1430.92 2282.9 2458.94 2757.63 2457.82 2759.87"/>
      <polyline class="cls-153" points="1430.92 2284.02 1432.04 2281.77 2460.06 2756.5 2458.94 2758.75"/>
      <polyline class="cls-152" points="1430.92 2282.9 1432.04 2280.65 2460.06 2755.38 2458.94 2756.5"/>
      <polyline class="cls-152" points="1432.04 2281.77 1433.16 2279.53 2461.18 2753.14 2460.06 2755.38"/>
      <polyline class="cls-152" points="1432.04 2279.53 1433.16 2278.41 2461.18 2752.02 2460.06 2754.26"/>
      <polyline class="cls-152" points="1433.16 2278.41 1434.29 2276.16 2462.31 2750.89 2461.18 2753.14"/>
      <polyline class="cls-151" points="1434.29 2277.28 1434.29 2275.04 2462.31 2749.77 2461.18 2752.02"/>
      <polyline class="cls-155" points="1434.29 2276.16 1435.41 2273.92 2463.43 2748.65 2462.31 2749.77"/>
      <polyline class="cls-155" points="1435.41 2275.04 1435.41 2272.8 2463.43 2746.4 2463.43 2748.65"/>
      <polyline class="cls-132" points="1435.41 2272.8 1436.53 2271.67 2464.55 2745.28 2463.43 2747.53"/>
      <polyline class="cls-131" points="1436.53 2271.67 1437.65 2269.43 2464.55 2744.16 2464.55 2746.4"/>
      <polyline class="cls-131" points="1436.53 2270.55 1437.65 2268.31 2465.67 2743.04 2464.55 2745.28"/>
      <polyline class="cls-131" points="1437.65 2269.43 1438.77 2267.18 2466.8 2741.91 2465.67 2743.04"/>
      <polyline class="cls-193" points="1437.65 2268.31 1438.77 2266.06 2466.8 2739.67 2465.67 2741.91"/>
      <polyline class="cls-192" points="1438.77 2266.06 1439.9 2264.94 2467.92 2738.55 2466.8 2740.79"/>
      <polyline class="cls-192" points="1438.77 2264.94 1439.9 2262.7 2467.92 2737.43 2466.8 2739.67"/>
      <polyline class="cls-186" points="1439.9 2263.82 1441.02 2261.57 2469.04 2736.3 2467.92 2738.55"/>
      <polyline class="cls-186" points="1441.02 2262.7 1441.02 2260.45 2469.04 2735.18 2467.92 2736.3"/>
      <polyline class="cls-185" points="1441.02 2261.57 1442.14 2259.33 2470.16 2732.94 2469.04 2735.18"/>
      <polyline class="cls-188" points="1442.14 2259.33 1442.14 2258.21 2470.16 2731.81 2470.16 2734.06"/>
      <polyline class="cls-188" points="1442.14 2258.21 1443.26 2257.08 2471.29 2730.69 2470.16 2732.94"/>
      <polyline class="cls-188" points="1443.26 2257.08 1444.39 2254.84 2471.29 2729.57 2471.29 2731.81"/>
      <polyline class="cls-189" points="1443.26 2255.96 1444.39 2253.72 2472.41 2728.45 2471.29 2730.69"/>
      <polyline class="cls-187" points="1444.39 2254.84 1445.51 2252.59 2473.53 2727.32 2472.41 2728.45"/>
      <polyline class="cls-187" points="1444.39 2253.72 1445.51 2251.47 2473.53 2725.08 2472.41 2727.32"/>
      <polyline class="cls-148" points="1445.51 2251.47 1446.63 2250.35 2474.65 2723.96 2473.53 2726.2"/>
      <polyline class="cls-148" points="1446.63 2250.35 1446.63 2248.11 2474.65 2722.84 2473.53 2725.08"/>
      <polyline class="cls-149" points="1446.63 2249.23 1447.75 2246.98 2475.77 2721.71 2474.65 2723.96"/>
      <polyline class="cls-149" points="1447.75 2248.11 1447.75 2245.86 2475.77 2720.59 2475.77 2721.71"/>
      <polyline class="cls-149" points="1447.75 2246.98 1448.88 2244.74 2476.9 2718.35 2475.77 2720.59"/>
      <polyline class="cls-150" points="1448.88 2244.74 1450 2243.62 2476.9 2717.22 2476.9 2719.47"/>
      <polyline class="cls-190" points="1448.88 2243.62 1450 2241.37 2478.02 2716.1 2476.9 2718.35"/>
      <polyline class="cls-190" points="1450 2242.49 1451.12 2240.25 2479.14 2714.98 2478.02 2717.22"/>
      <polyline class="cls-190" points="1450 2241.37 1451.12 2239.13 2479.14 2713.86 2478.02 2714.98"/>
      <polyline class="cls-190" points="1451.12 2240.25 1452.24 2238 2480.26 2711.61 2479.14 2713.86"/>
      <polyline class="cls-191" points="1451.12 2238 1452.24 2236.88 2480.26 2710.49 2479.14 2712.74"/>
      <polyline class="cls-137" points="1452.24 2236.88 1453.36 2234.64 2481.39 2709.37 2480.26 2711.61"/>
      <polyline class="cls-142" points="1453.36 2235.76 1453.36 2233.52 2481.39 2708.25 2480.26 2710.49"/>
      <polyline class="cls-142" points="1453.36 2234.64 1454.49 2232.39 2482.51 2707.12 2481.39 2708.25"/>
      <polyline class="cls-143" points="1454.49 2233.52 1454.49 2231.27 2482.51 2704.88 2482.51 2707.12"/>
      <polyline class="cls-143" points="1454.49 2231.27 1455.61 2230.15 2483.63 2703.76 2482.51 2706"/>
      <polyline class="cls-143" points="1455.61 2230.15 1456.73 2229.03 2483.63 2702.63 2483.63 2704.88"/>
      <polyline class="cls-146" points="1455.61 2229.03 1456.73 2226.78 2484.75 2701.51 2483.63 2703.76"/>
      <polyline class="cls-147" points="1456.73 2227.9 1457.85 2225.66 2485.88 2700.39 2484.75 2702.63"/>
      <polyline class="cls-138" points="1456.73 2226.78 1457.85 2224.54 2485.88 2699.27 2484.75 2700.39"/>
      <polyline class="cls-138" points="1457.85 2225.66 1458.98 2223.41 2487 2697.02 2485.88 2699.27"/>
      <polyline class="cls-138" points="1457.85 2223.41 1458.98 2222.29 2487 2695.9 2485.88 2698.15"/>
      <polyline class="cls-139" points="1458.98 2222.29 1460.1 2220.05 2488.12 2694.78 2487 2697.02"/>
      <polyline class="cls-15" points="1460.1 2221.17 1460.1 2218.93 2488.12 2693.66 2487 2695.9"/>
      <polyline class="cls-15" points="1460.1 2220.05 1461.22 2217.8 2489.24 2692.53 2488.12 2693.66"/>
      <polyline class="cls-16" points="1461.22 2218.93 1462.34 2216.68 2489.24 2690.29 2489.24 2692.53"/>
      <polyline class="cls-17" points="1461.22 2216.68 1462.34 2215.56 2490.36 2689.17 2489.24 2691.41"/>
      <polyline class="cls-17" points="1462.34 2215.56 1463.47 2213.31 2491.49 2688.04 2490.36 2690.29"/>
      <polyline class="cls-17" points="1462.34 2214.44 1463.47 2212.19 2491.49 2686.92 2490.36 2689.17"/>
      <polyline class="cls-36" points="1463.47 2213.31 1464.59 2211.07 2492.61 2685.8 2491.49 2686.92"/>
      <polyline class="cls-35" points="1463.47 2212.19 1464.59 2209.95 2492.61 2683.56 2491.49 2685.8"/>
      <polyline class="cls-35" points="1464.59 2209.95 1465.71 2208.82 2493.73 2682.43 2492.61 2684.68"/>
      <polyline class="cls-34" points="1465.71 2208.82 1465.71 2206.58 2493.73 2681.31 2492.61 2683.56"/>
      <polyline class="cls-34" points="1465.71 2207.7 1466.83 2205.46 2494.85 2680.19 2493.73 2682.43"/>
      <polyline class="cls-33" points="1466.83 2206.58 1466.83 2204.34 2494.85 2679.07 2494.85 2680.19"/>
      <polyline class="cls-50" points="1466.83 2205.46 1467.95 2203.21 2495.98 2677.94 2494.85 2679.07"/>
      <polyline class="cls-50" points="1467.95 2203.21 1469.08 2202.09 2495.98 2675.7 2495.98 2677.94"/>
      <polyline class="cls-50" points="1467.95 2202.09 1469.08 2200.97 2497.1 2674.58 2495.98 2676.82"/>
      <polyline class="cls-50" points="1469.08 2200.97 1470.2 2198.72 2498.22 2673.45 2497.1 2675.7"/>
      <polyline class="cls-67" points="1469.08 2199.85 1470.2 2197.6 2498.22 2672.33 2497.1 2674.58"/>
      <polyline class="cls-67" points="1470.2 2198.72 1471.32 2196.48 2499.34 2671.21 2498.22 2672.33"/>
      <polyline class="cls-46" points="1470.2 2197.6 1471.32 2195.36 2499.34 2668.97 2498.22 2671.21"/>
      <polyline class="cls-46" points="1471.32 2195.36 1472.44 2194.24 2500.47 2667.84 2499.34 2670.09"/>
      <polyline class="cls-45" points="1472.44 2194.24 1472.44 2191.99 2500.47 2666.72 2499.34 2668.97"/>
      <polyline class="cls-45" points="1472.44 2193.11 1473.57 2190.87 2501.59 2665.6 2500.47 2667.84"/>
      <polyline class="cls-45" points="1473.57 2191.99 1473.57 2189.75 2501.59 2664.48 2501.59 2665.6"/>
      <polyline class="cls-47" points="1473.57 2190.87 1474.69 2188.62 2502.71 2662.23 2501.59 2664.48"/>
      <polyline class="cls-48" points="1474.69 2188.62 1475.81 2187.5 2502.71 2661.11 2502.71 2663.35"/>
      <polyline class="cls-48" points="1474.69 2187.5 1475.81 2185.26 2503.83 2659.99 2502.71 2662.23"/>
      <polyline class="cls-48" points="1475.81 2186.38 1476.93 2184.13 2504.95 2658.86 2503.83 2661.11"/>
      <polyline class="cls-48" points="1475.81 2185.26 1476.93 2183.01 2504.95 2657.74 2503.83 2658.86"/>
      <polyline class="cls-49" points="1476.93 2184.13 1478.06 2181.89 2506.08 2655.5 2504.95 2657.74"/>
      <polyline class="cls-49" points="1478.06 2181.89 1478.06 2180.77 2506.08 2654.38 2504.95 2656.62"/>
      <polyline class="cls-71" points="1478.06 2180.77 1479.18 2178.52 2507.2 2653.25 2506.08 2655.5"/>
      <polyline class="cls-71" points="1479.18 2179.65 1479.18 2177.4 2507.2 2652.13 2507.2 2654.38"/>
      <polyline class="cls-72" points="1479.18 2178.52 1480.3 2176.28 2508.32 2651.01 2507.2 2652.13"/>
      <polyline class="cls-72" points="1480.3 2177.4 1481.42 2175.16 2508.32 2649.89 2508.32 2651.01"/>
      <polyline class="cls-72" points="1480.3 2175.16 1481.42 2174.03 2509.44 2647.64 2508.32 2649.89"/>
      <polyline class="cls-72" points="1481.42 2174.03 1482.54 2172.91 2510.57 2646.52 2509.44 2648.76"/>
      <polyline class="cls-54" points="1481.42 2172.91 1482.54 2170.67 2510.57 2645.4 2509.44 2647.64"/>
      <polyline class="cls-56" points="1482.54 2171.79 1483.67 2169.54 2511.69 2644.28 2510.57 2646.52"/>
      <polyline class="cls-56" points="1482.54 2170.67 1483.67 2168.42 2511.69 2643.15 2510.57 2644.28"/>
      <polyline class="cls-56" points="1483.67 2169.54 1484.79 2167.3 2512.81 2640.91 2511.69 2643.15"/>
      <polyline class="cls-55" points="1484.79 2167.3 1484.79 2166.18 2512.81 2639.79 2511.69 2642.03"/>
      <polyline class="cls-55" points="1484.79 2166.18 1485.91 2163.93 2513.93 2638.66 2512.81 2640.91"/>
      <polyline class="cls-29" points="1485.91 2165.06 1485.91 2162.81 2513.93 2637.54 2513.93 2639.79"/>
      <polyline class="cls-29" points="1485.91 2163.93 1487.03 2161.69 2515.06 2636.42 2513.93 2637.54"/>
      <polyline class="cls-30" points="1487.03 2162.81 1488.16 2160.57 2515.06 2634.17 2515.06 2636.42"/>
      <polyline class="cls-30" points="1487.03 2160.57 1488.16 2159.44 2516.18 2633.05 2515.06 2635.3"/>
      <polyline class="cls-30" points="1488.16 2159.44 1489.28 2157.2 2517.3 2631.93 2516.18 2634.17"/>
      <polyline class="cls-30" points="1488.16 2158.32 1489.28 2156.08 2517.3 2630.81 2516.18 2633.05"/>
      <polyline class="cls-32" points="1489.28 2157.2 1490.4 2154.95 2518.42 2629.69 2517.3 2630.81"/>
      <polyline class="cls-31" points="1489.28 2156.08 1490.4 2153.83 2518.42 2627.44 2517.3 2629.69"/>
      <polyline class="cls-31" points="1490.4 2153.83 1491.52 2152.71 2519.54 2626.32 2518.42 2628.56"/>
      <polyline class="cls-5" points="1491.52 2152.71 1491.52 2150.47 2519.54 2625.2 2519.54 2627.44"/>
      <polyline class="cls-5" points="1491.52 2151.59 1492.64 2149.34 2520.67 2624.07 2519.54 2626.32"/>
      <polyline class="cls-6" points="1492.64 2150.47 1493.77 2148.22 2520.67 2622.95 2520.67 2624.07"/>
      <polyline class="cls-13" points="1492.64 2149.34 1493.77 2147.1 2521.79 2621.83 2520.67 2622.95"/>
      <polyline class="cls-13" points="1493.77 2147.1 1494.89 2145.98 2522.91 2619.58 2521.79 2621.83"/>
      <polyline class="cls-13" points="1493.77 2145.98 1494.89 2144.85 2522.91 2618.46 2521.79 2620.71"/>
      <polyline class="cls-14" points="1494.89 2144.85 1496.01 2142.61 2524.03 2617.34 2522.91 2619.58"/>
      <polyline class="cls-12" points="1494.89 2143.73 1496.01 2141.49 2524.03 2616.22 2522.91 2618.46"/>
      <polyline class="cls-12" points="1496.01 2142.61 1497.13 2140.36 2525.16 2615.1 2524.03 2616.22"/>
      <polyline class="cls-40" points="1497.13 2141.49 1497.13 2139.24 2525.16 2612.85 2524.03 2615.1"/>
      <polyline class="cls-39" points="1497.13 2139.24 1498.26 2138.12 2526.28 2611.73 2525.16 2613.97"/>
      <polyline class="cls-39" points="1498.26 2138.12 1498.26 2135.88 2526.28 2610.61 2526.28 2612.85"/>
      <polyline class="cls-39" points="1498.26 2137 1499.38 2134.75 2527.4 2609.48 2526.28 2611.73"/>
      <polyline class="cls-37" points="1499.38 2135.88 1500.5 2133.63 2527.4 2608.36 2527.4 2609.48"/>
      <polyline class="cls-38" points="1499.38 2134.75 1500.5 2132.51 2528.52 2606.12 2527.4 2608.36"/>
      <polyline class="cls-11" points="1500.5 2132.51 1501.62 2131.39 2529.64 2604.99 2528.52 2607.24"/>
      <polyline class="cls-11" points="1500.5 2131.39 1501.62 2129.14 2529.64 2603.87 2528.52 2606.12"/>
      <polyline class="cls-11" points="1501.62 2130.26 1502.75 2128.02 2530.77 2602.75 2529.64 2604.99"/>
      <polyline class="cls-10" points="1501.62 2129.14 1502.75 2126.9 2530.77 2601.63 2529.64 2602.75"/>
      <polyline class="cls-10" points="1502.75 2128.02 1503.87 2125.78 2531.89 2599.38 2530.77 2601.63"/>
      <polyline class="cls-18" points="1503.87 2125.78 1503.87 2124.65 2531.89 2598.26 2530.77 2600.51"/>
      <polyline class="cls-20" points="1503.87 2124.65 1504.99 2122.41 2533.01 2597.14 2531.89 2599.38"/>
      <polyline class="cls-19" points="1504.99 2123.53 1506.11 2121.29 2533.01 2596.02 2533.01 2598.26"/>
      <polyline class="cls-19" points="1504.99 2122.41 1506.11 2120.16 2534.13 2594.89 2533.01 2596.02"/>
      <polyline class="cls-19" points="1506.11 2121.29 1507.23 2119.04 2535.26 2593.77 2534.13 2594.89"/>
      <polyline class="cls-19" points="1506.11 2119.04 1507.23 2117.92 2535.26 2591.53 2534.13 2593.77"/>
      <polyline class="cls-25" points="1507.23 2117.92 1508.36 2116.8 2536.38 2590.41 2535.26 2592.65"/>
      <polyline class="cls-26" points="1507.23 2116.8 1508.36 2114.55 2536.38 2589.28 2535.26 2591.53"/>
      <polyline class="cls-26" points="1508.36 2115.67 1509.48 2113.43 2537.5 2588.16 2536.38 2590.41"/>
      <polyline class="cls-26" points="1509.48 2114.55 1509.48 2112.31 2537.5 2587.04 2536.38 2588.16"/>
      <polyline class="cls-27" points="1509.48 2113.43 1510.6 2111.19 2538.62 2584.79 2537.5 2587.04"/>
      <polyline class="cls-27" points="1510.6 2111.19 1510.6 2110.06 2538.62 2583.67 2538.62 2585.92"/>
      <polyline class="cls-23" points="1510.6 2110.06 1511.72 2107.82 2539.75 2582.55 2538.62 2584.79"/>
      <polyline class="cls-23" points="1511.72 2108.94 1512.85 2106.7 2539.75 2581.43 2539.75 2583.67"/>
      <polyline class="cls-22" points="1511.72 2107.82 1512.85 2105.57 2540.87 2580.3 2539.75 2581.43"/>
      <polyline class="cls-21" points="1512.85 2106.7 1513.97 2104.45 2541.99 2578.06 2540.87 2580.3"/>
      <polyline class="cls-21" points="1512.85 2104.45 1513.97 2103.33 2541.99 2576.94 2540.87 2579.18"/>
      <polyline class="cls-21" points="1513.97 2103.33 1515.09 2101.08 2543.11 2575.82 2541.99 2578.06"/>
      <polyline class="cls-44" points="1513.97 2102.21 1515.09 2099.96 2543.11 2574.69 2541.99 2576.94"/>
      <polyline class="cls-43" points="1515.09 2101.08 1516.21 2098.84 2544.23 2573.57 2543.11 2574.69"/>
      <polyline class="cls-43" points="1516.21 2099.96 1516.21 2097.72 2544.23 2571.33 2543.11 2573.57"/>
      <polyline class="cls-98" points="1516.21 2097.72 1517.34 2096.6 2545.36 2570.2 2544.23 2572.45"/>
      <polyline class="cls-98" points="1517.34 2096.6 1517.34 2094.35 2545.36 2569.08 2545.36 2571.33"/>
      <polyline class="cls-97" points="1517.34 2095.47 1518.46 2093.23 2546.48 2567.96 2545.36 2570.2"/>
      <polyline class="cls-109" points="1518.46 2094.35 1519.58 2092.11 2546.48 2566.84 2546.48 2567.96"/>
      <polyline class="cls-109" points="1518.46 2093.23 1519.58 2090.98 2547.6 2565.71 2546.48 2566.84"/>
      <polyline class="cls-109" points="1519.58 2092.11 1520.7 2089.86 2548.72 2563.47 2547.6 2565.71"/>
      <polyline class="cls-110" points="1519.58 2089.86 1520.7 2088.74 2548.72 2562.35 2547.6 2564.59"/>
      <polyline class="cls-115" points="1520.7 2088.74 1521.82 2086.49 2549.85 2561.23 2548.72 2563.47"/>
      <polyline class="cls-115" points="1521.82 2087.62 1521.82 2085.37 2549.85 2560.1 2548.72 2562.35"/>
      <polyline class="cls-112" points="1521.82 2086.49 1522.95 2084.25 2550.97 2558.98 2549.85 2560.1"/>
      <polyline class="cls-111" points="1522.95 2085.37 1522.95 2083.13 2550.97 2556.74 2550.97 2558.98"/>
      <polyline class="cls-111" points="1522.95 2083.13 1524.07 2082.01 2552.09 2555.61 2550.97 2557.86"/>
      <polyline class="cls-111" points="1524.07 2082.01 1525.19 2079.76 2552.09 2554.49 2552.09 2556.74"/>
      <polyline class="cls-111" points="1524.07 2080.88 1525.19 2078.64 2553.21 2553.37 2552.09 2555.61"/>
      <polyline class="cls-79" points="1525.19 2079.76 1526.31 2077.52 2554.34 2552.25 2553.21 2553.37"/>
      <polyline class="cls-91" points="1525.19 2078.64 1526.31 2076.39 2554.34 2550 2553.21 2552.25"/>
      <polyline class="cls-91" points="1526.31 2076.39 1527.44 2075.27 2555.46 2548.88 2554.34 2551.12"/>
      <polyline class="cls-91" points="1526.31 2075.27 1527.44 2073.03 2555.46 2547.76 2554.34 2550"/>
      <polyline class="cls-90" points="1527.44 2074.15 1528.56 2071.91 2556.58 2546.64 2555.46 2548.88"/>
      <polyline class="cls-90" points="1528.56 2073.03 1528.56 2070.78 2556.58 2545.51 2555.46 2546.64"/>
      <polyline class="cls-90" points="1528.56 2071.91 1529.68 2069.66 2557.7 2543.27 2556.58 2545.51"/>
      <polyline class="cls-75" points="1529.68 2069.66 1529.68 2068.54 2557.7 2542.15 2557.7 2544.39"/>
      <polyline class="cls-74" points="1529.68 2068.54 1530.8 2066.29 2558.82 2541.02 2557.7 2543.27"/>
      <polyline class="cls-74" points="1530.8 2067.42 1531.93 2065.17 2558.82 2539.9 2558.82 2542.15"/>
      <polyline class="cls-74" points="1530.8 2066.29 1531.93 2064.05 2559.95 2538.78 2558.82 2539.9"/>
      <polyline class="cls-74" points="1531.93 2065.17 1533.05 2062.93 2561.07 2537.66 2559.95 2538.78"/>
      <polyline class="cls-73" points="1531.93 2064.05 1533.05 2061.8 2561.07 2535.41 2559.95 2537.66"/>
      <polyline class="cls-78" points="1533.05 2061.8 1534.17 2060.68 2562.19 2534.29 2561.07 2536.53"/>
      <polyline class="cls-76" points="1533.05 2060.68 1534.17 2058.44 2562.19 2533.17 2561.07 2535.41"/>
      <polyline class="cls-76" points="1534.17 2059.56 1535.29 2057.32 2563.31 2532.05 2562.19 2534.29"/>
      <polyline class="cls-76" points="1535.29 2058.44 1535.29 2056.19 2563.31 2530.92 2562.19 2532.05"/>
      <polyline class="cls-77" points="1535.29 2057.32 1536.41 2055.07 2564.44 2528.68 2563.31 2530.92"/>
      <polyline class="cls-77" points="1536.41 2055.07 1537.54 2053.95 2564.44 2527.56 2564.44 2529.8"/>
      <polyline class="cls-92" points="1536.41 2053.95 1537.54 2051.7 2565.56 2526.43 2564.44 2528.68"/>
      <polyline class="cls-94" points="1537.54 2052.83 1538.66 2050.58 2566.68 2525.31 2565.56 2527.56"/>
      <polyline class="cls-93" points="1537.54 2051.7 1538.66 2049.46 2566.68 2524.19 2565.56 2525.31"/>
      <polyline class="cls-93" points="1538.66 2050.58 1539.78 2048.34 2567.8 2521.94 2566.68 2524.19"/>
      <polyline class="cls-93" points="1538.66 2048.34 1539.78 2047.21 2567.8 2520.82 2566.68 2523.07"/>
      <polyline class="cls-93" points="1539.78 2047.21 1540.9 2044.97 2568.93 2519.7 2567.8 2521.94"/>
      <polyline class="cls-87" points="1540.9 2046.09 1540.9 2043.85 2568.93 2518.58 2567.8 2520.82"/>
      <polyline class="cls-87" points="1540.9 2044.97 1542.03 2042.73 2570.05 2517.46 2568.93 2518.58"/>
      <polyline class="cls-84" points="1542.03 2043.85 1542.03 2041.6 2570.05 2515.21 2570.05 2517.46"/>
      <polyline class="cls-84" points="1542.03 2041.6 1543.15 2040.48 2571.17 2514.09 2570.05 2516.33"/>
      <polyline class="cls-85" points="1543.15 2040.48 1544.27 2038.24 2571.17 2512.97 2571.17 2515.21"/>
      <polyline class="cls-85" points="1543.15 2039.36 1544.27 2037.11 2572.29 2511.84 2571.17 2514.09"/>
      <polyline class="cls-69" points="1544.27 2038.24 1545.39 2035.99 2573.41 2510.72 2572.29 2512.97"/>
      <polyline class="cls-69" points="1544.27 2037.11 1545.39 2034.87 2573.41 2509.6 2572.29 2510.72"/>
      <polyline class="cls-68" points="1545.39 2035.99 1546.51 2033.75 2574.54 2507.36 2573.41 2509.6"/>
      <polyline class="cls-42" points="1545.39 2033.75 1546.51 2032.62 2574.54 2506.23 2573.41 2508.48"/>
      <polyline class="cls-42" points="1546.51 2032.62 1547.64 2030.38 2575.66 2505.11 2574.54 2507.36"/>
      <polyline class="cls-42" points="1547.64 2031.5 1547.64 2029.26 2575.66 2503.99 2574.54 2506.23"/>
      <polyline class="cls-41" points="1547.64 2030.38 1548.76 2028.14 2576.78 2502.87 2575.66 2503.99"/>
      <polyline class="cls-41" points="1548.76 2029.26 1548.76 2027.01 2576.78 2500.62 2576.78 2502.87"/>
      <polyline class="cls-41" points="1548.76 2027.01 1549.88 2025.89 2577.9 2499.5 2576.78 2501.74"/>
      <polyline class="cls-41" points="1549.88 2025.89 1551 2023.65 2579.03 2498.38 2577.9 2500.62"/>
      <polyline class="cls-70" points="1549.88 2024.77 1551 2022.52 2579.03 2497.25 2577.9 2499.5"/>
      <polyline class="cls-70" points="1551 2023.65 1552.13 2021.4 2580.15 2496.13 2579.03 2497.25"/>
      <polyline class="cls-7" points="1551 2022.52 1552.13 2020.28 2580.15 2493.89 2579.03 2496.13"/>
      <polyline class="cls-7" points="1552.13 2020.28 1553.25 2019.16 2581.27 2492.77 2580.15 2495.01"/>
      <polyline class="cls-8" points="1553.25 2019.16 1553.25 2016.91 2581.27 2491.64 2580.15 2493.89"/>
      <polyline class="cls-8" points="1553.25 2018.03 1554.37 2015.79 2582.39 2490.52 2581.27 2492.77"/>
      <polyline class="cls-8" points="1554.37 2016.91 1554.37 2014.67 2582.39 2489.4 2582.39 2490.52"/>
      <polyline class="cls-9" points="1554.37 2015.79 1555.49 2013.55 2583.51 2487.15 2582.39 2489.4"/>
      <polyline class="cls-51" points="1555.49 2013.55 1556.62 2012.42 2583.51 2486.03 2583.51 2488.28"/>
      <polyline class="cls-51" points="1555.49 2012.42 1556.62 2010.18 2584.64 2484.91 2583.51 2487.15"/>
      <polyline class="cls-51" points="1556.62 2011.3 1763.12 1563.51 2791.14 2037.11 2584.64 2486.03"/>
    </g>
    <g class="cls-4">
      <polyline class="cls-53" points="1518.46 2813.74 1412.96 2280.65 2794.51 2006.81 2900 2541.02"/>
      <polyline class="cls-53" points="1412.96 2281.77 1411.84 2278.41 2793.38 2005.69 2794.51 2007.93"/>
      <polyline class="cls-53" points="1411.84 2279.53 1411.84 2277.28 2793.38 2003.45 2794.51 2006.81"/>
      <polyline class="cls-53" points="1411.84 2278.41 1411.84 2275.04 2793.38 2002.32 2793.38 2004.57"/>
      <polyline class="cls-52" points="1411.84 2276.16 1410.72 2273.92 2793.38 2000.08 2793.38 2003.45"/>
      <polyline class="cls-62" points="1411.84 2275.04 1410.72 2271.67 2792.26 1998.96 2793.38 2001.2"/>
      <polyline class="cls-62" points="1410.72 2272.8 1410.72 2270.55 2792.26 1996.71 2792.26 2000.08"/>
      <polyline class="cls-62" points="1410.72 2271.67 1410.72 2268.31 2792.26 1995.59 2792.26 1997.83"/>
      <polyline class="cls-62" points="1410.72 2269.43 1409.6 2267.18 2791.14 1993.34 2792.26 1996.71"/>
      <polyline class="cls-62" points="1409.6 2268.31 1409.6 2264.94 2791.14 1992.22 2791.14 1994.47"/>
      <polyline class="cls-63" points="1409.6 2266.06 1409.6 2263.82 2791.14 1989.98 2791.14 1993.34"/>
      <polyline class="cls-63" points="1409.6 2263.82 1408.47 2261.57 2790.02 1988.86 2791.14 1991.1"/>
      <polyline class="cls-64" points="1408.47 2262.7 1408.47 2260.45 2790.02 1986.61 2791.14 1989.98"/>
      <polyline class="cls-64" points="1408.47 2260.45 1408.47 2258.21 2790.02 1985.49 2790.02 1987.73"/>
      <polyline class="cls-66" points="1408.47 2259.33 1407.35 2257.08 2790.02 1983.24 2790.02 1986.61"/>
      <polyline class="cls-66" points="1408.47 2257.08 1407.35 2254.84 2788.89 1982.12 2790.02 1984.37"/>
      <polyline class="cls-66" points="1407.35 2255.96 1407.35 2253.72 2788.89 1979.88 2788.89 1983.24"/>
      <polyline class="cls-66" points="1407.35 2253.72 1407.35 2251.47 2788.89 1978.75 2788.89 1981"/>
      <polyline class="cls-66" points="1407.35 2252.59 1406.23 2250.35 2787.77 1976.51 2788.89 1979.88"/>
      <polyline class="cls-66" points="1406.23 2250.35 1406.23 2248.11 2787.77 1975.39 2787.77 1977.63"/>
      <polyline class="cls-65" points="1406.23 2249.23 1406.23 2246.98 2787.77 1973.14 2787.77 1976.51"/>
      <polyline class="cls-65" points="1406.23 2246.98 1405.11 2244.74 2786.65 1972.02 2787.77 1974.27"/>
      <polyline class="cls-65" points="1406.23 2245.86 1405.11 2243.62 2786.65 1969.78 2787.77 1972.02"/>
      <polyline class="cls-82" points="1405.11 2243.62 1405.11 2241.37 2786.65 1968.65 2786.65 1970.9"/>
      <polyline class="cls-82" points="1405.11 2242.49 1403.98 2240.25 2786.65 1966.41 2786.65 1968.65"/>
      <polyline class="cls-82" points="1405.11 2240.25 1403.98 2238 2785.53 1965.29 2786.65 1967.53"/>
      <polyline class="cls-82" points="1403.98 2239.13 1403.98 2236.88 2785.53 1963.04 2785.53 1965.29"/>
      <polyline class="cls-82" points="1403.98 2236.88 1403.98 2234.64 2785.53 1961.92 2785.53 1964.16"/>
      <polyline class="cls-80" points="1403.98 2235.76 1402.86 2233.52 2784.41 1959.68 2785.53 1961.92"/>
      <polyline class="cls-80" points="1402.86 2233.52 1402.86 2231.27 2784.41 1958.55 2784.41 1960.8"/>
      <polyline class="cls-81" points="1402.86 2232.39 1402.86 2229.03 2784.41 1956.31 2784.41 1958.55"/>
      <polyline class="cls-81" points="1402.86 2230.15 1401.74 2227.9 2783.28 1955.19 2784.41 1957.43"/>
      <polyline class="cls-57" points="1402.86 2229.03 1401.74 2225.66 2783.28 1952.94 2784.41 1955.19"/>
      <polyline class="cls-57" points="1401.74 2226.78 1401.74 2224.54 2783.28 1951.82 2783.28 1954.06"/>
      <polyline class="cls-57" points="1401.74 2225.66 1400.62 2222.29 2783.28 1949.57 2783.28 1951.82"/>
      <polyline class="cls-58" points="1401.74 2223.41 1400.62 2221.17 2782.16 1948.45 2783.28 1950.7"/>
      <polyline class="cls-58" points="1400.62 2222.29 1400.62 2218.93 2782.16 1946.21 2782.16 1948.45"/>
      <polyline class="cls-58" points="1400.62 2220.05 1400.62 2217.8 2782.16 1945.09 2782.16 1947.33"/>
      <polyline class="cls-58" points="1400.62 2218.93 1399.49 2215.56 2781.04 1942.84 2782.16 1945.09"/>
      <polyline class="cls-58" points="1399.49 2216.68 1399.49 2214.44 2781.04 1941.72 2781.04 1943.96"/>
      <polyline class="cls-58" points="1399.49 2215.56 1399.49 2212.19 2781.04 1939.47 2781.04 1941.72"/>
      <polyline class="cls-59" points="1399.49 2213.31 1398.37 2211.07 2779.92 1937.23 2781.04 1940.6"/>
      <polyline class="cls-59" points="1399.49 2212.19 1398.37 2208.82 2779.92 1936.11 2781.04 1938.35"/>
      <polyline class="cls-61" points="1398.37 2209.95 1398.37 2207.7 2779.92 1933.86 2779.92 1937.23"/>
      <polyline class="cls-61" points="1398.37 2208.82 1397.25 2205.46 2779.92 1932.74 2779.92 1934.99"/>
      <polyline class="cls-61" points="1398.37 2206.58 1397.25 2204.34 2778.79 1930.5 2779.92 1933.86"/>
      <polyline class="cls-61" points="1397.25 2205.46 1397.25 2202.09 2778.79 1929.37 2778.79 1931.62"/>
      <polyline class="cls-61" points="1397.25 2203.21 1397.25 2200.97 2778.79 1927.13 2778.79 1930.5"/>
      <polyline class="cls-61" points="1397.25 2202.09 1396.13 2198.72 2777.67 1926.01 2778.79 1928.25"/>
      <polyline class="cls-61" points="1396.13 2199.85 1396.13 2197.6 2777.67 1923.76 2778.79 1927.13"/>
      <polyline class="cls-60" points="1396.13 2198.72 1396.13 2195.36 2777.67 1922.64 2777.67 1924.88"/>
      <polyline class="cls-95" points="1396.13 2196.48 1395.01 2194.24 2776.55 1920.4 2777.67 1923.76"/>
      <polyline class="cls-95" points="1396.13 2194.24 1395.01 2191.99 2776.55 1919.27 2777.67 1921.52"/>
      <polyline class="cls-95" points="1395.01 2193.11 1395.01 2190.87 2776.55 1917.03 2776.55 1920.4"/>
      <polyline class="cls-95" points="1395.01 2190.87 1393.88 2188.62 2776.55 1915.91 2776.55 1918.15"/>
      <polyline class="cls-95" points="1395.01 2189.75 1393.88 2187.5 2775.43 1913.66 2776.55 1917.03"/>
      <polyline class="cls-95" points="1393.88 2187.5 1393.88 2185.26 2775.43 1912.54 2775.43 1914.78"/>
      <polyline class="cls-95" points="1393.88 2186.38 1393.88 2184.13 2775.43 1910.29 2775.43 1913.66"/>
      <polyline class="cls-96" points="1393.88 2184.13 1392.76 2181.89 2774.31 1909.17 2775.43 1911.42"/>
      <polyline class="cls-96" points="1392.76 2183.01 1392.76 2180.77 2774.31 1906.93 2775.43 1910.29"/>
      <polyline class="cls-89" points="1392.76 2180.77 1392.76 2178.52 2774.31 1905.81 2774.31 1908.05"/>
      <polyline class="cls-89" points="1392.76 2179.65 1391.64 2177.4 2773.18 1903.56 2774.31 1906.93"/>
      <polyline class="cls-89" points="1392.76 2177.4 1391.64 2175.16 2773.18 1902.44 2774.31 1904.68"/>
      <polyline class="cls-89" points="1391.64 2176.28 1391.64 2174.03 2773.18 1900.19 2773.18 1902.44"/>
      <polyline class="cls-89" points="1391.64 2174.03 1391.64 2171.79 2773.18 1899.07 2773.18 1901.32"/>
      <polyline class="cls-89" points="1391.64 2172.91 1390.52 2170.67 2772.06 1896.83 2773.18 1899.07"/>
      <polyline class="cls-88" points="1390.52 2170.67 1390.52 2168.42 2772.06 1895.7 2772.06 1897.95"/>
      <polyline class="cls-88" points="1390.52 2169.54 1390.52 2167.3 2772.06 1893.46 2772.06 1895.7"/>
      <polyline class="cls-88" points="1390.52 2167.3 1389.39 2165.06 2770.94 1892.34 2772.06 1894.58"/>
      <polyline class="cls-158" points="1389.39 2166.18 1389.39 2163.93 2770.94 1890.09 2772.06 1892.34"/>
      <polyline class="cls-158" points="1389.39 2163.93 1389.39 2161.69 2770.94 1888.97 2770.94 1891.22"/>
      <polyline class="cls-158" points="1389.39 2162.81 1388.27 2159.44 2769.82 1886.73 2770.94 1888.97"/>
      <polyline class="cls-158" points="1389.39 2160.57 1388.27 2158.32 2769.82 1885.6 2770.94 1887.85"/>
      <polyline class="cls-158" points="1388.27 2159.44 1388.27 2156.08 2769.82 1883.36 2769.82 1885.6"/>
      <polyline class="cls-157" points="1388.27 2157.2 1388.27 2154.95 2769.82 1882.24 2769.82 1884.48"/>
      <polyline class="cls-157" points="1388.27 2156.08 1387.15 2152.71 2768.69 1879.99 2769.82 1882.24"/>
      <polyline class="cls-157" points="1387.15 2153.83 1387.15 2151.59 2768.69 1878.87 2768.69 1881.11"/>
      <polyline class="cls-157" points="1387.15 2152.71 1387.15 2149.34 2768.69 1876.63 2768.69 1878.87"/>
      <polyline class="cls-154" points="1387.15 2150.47 1386.03 2148.22 2767.57 1875.5 2768.69 1877.75"/>
      <polyline class="cls-154" points="1386.03 2149.34 1386.03 2145.98 2767.57 1873.26 2768.69 1875.5"/>
      <polyline class="cls-154" points="1386.03 2147.1 1386.03 2144.85 2767.57 1872.14 2767.57 1874.38"/>
      <polyline class="cls-154" points="1386.03 2145.98 1384.9 2142.61 2766.45 1869.89 2767.57 1872.14"/>
      <polyline class="cls-130" points="1386.03 2143.73 1384.9 2141.49 2766.45 1867.65 2767.57 1871.01"/>
      <polyline class="cls-130" points="1384.9 2142.61 1384.9 2139.24 2766.45 1866.53 2766.45 1868.77"/>
      <polyline class="cls-130" points="1384.9 2140.36 1384.9 2138.12 2766.45 1864.28 2766.45 1867.65"/>
      <polyline class="cls-130" points="1384.9 2139.24 1383.78 2135.88 2765.33 1863.16 2766.45 1865.4"/>
      <polyline class="cls-130" points="1383.78 2137 1383.78 2134.75 2765.33 1860.91 2765.33 1864.28"/>
      <polyline class="cls-144" points="1383.78 2135.88 1383.78 2132.51 2765.33 1859.79 2765.33 1862.04"/>
      <polyline class="cls-144" points="1383.78 2133.63 1382.66 2131.39 2764.2 1857.55 2765.33 1860.91"/>
      <polyline class="cls-145" points="1382.66 2132.51 1382.66 2129.14 2764.2 1856.42 2765.33 1858.67"/>
      <polyline class="cls-145" points="1382.66 2130.26 1382.66 2128.02 2764.2 1854.18 2764.2 1857.55"/>
      <polyline class="cls-145" points="1382.66 2129.14 1381.54 2125.78 2764.2 1853.06 2764.2 1855.3"/>
      <polyline class="cls-145" points="1382.66 2126.9 1381.54 2124.65 2763.08 1850.81 2764.2 1854.18"/>
      <polyline class="cls-145" points="1381.54 2125.78 1381.54 2122.41 2763.08 1849.69 2763.08 1851.94"/>
      <polyline class="cls-145" points="1381.54 2123.53 1381.54 2121.29 2763.08 1847.45 2763.08 1850.81"/>
      <polyline class="cls-145" points="1381.54 2121.29 1380.42 2119.04 2761.96 1846.32 2763.08 1848.57"/>
      <polyline class="cls-156" points="1380.42 2120.16 1380.42 2117.92 2761.96 1844.08 2761.96 1847.45"/>
      <polyline class="cls-159" points="1380.42 2117.92 1380.42 2115.67 2761.96 1842.96 2761.96 1845.2"/>
      <polyline class="cls-159" points="1380.42 2116.8 1379.29 2114.55 2760.84 1840.71 2761.96 1844.08"/>
      <polyline class="cls-159" points="1379.29 2114.55 1379.29 2112.31 2760.84 1839.59 2761.96 1841.83"/>
      <polyline class="cls-159" points="1379.29 2113.43 1379.29 2111.19 2760.84 1837.35 2760.84 1840.71"/>
      <polyline class="cls-159" points="1379.29 2111.19 1378.17 2108.94 2760.84 1836.22 2760.84 1838.47"/>
      <polyline class="cls-159" points="1379.29 2110.06 1378.17 2107.82 2759.72 1833.98 2760.84 1837.35"/>
      <polyline class="cls-159" points="1378.17 2107.82 1378.17 2105.57 2759.72 1832.86 2759.72 1835.1"/>
      <polyline class="cls-159" points="1378.17 2106.7 1378.17 2104.45 2759.72 1830.61 2759.72 1833.98"/>
      <polyline class="cls-102" points="1378.17 2104.45 1377.05 2102.21 2758.59 1829.49 2759.72 1831.73"/>
      <polyline class="cls-102" points="1377.05 2103.33 1377.05 2101.08 2758.59 1827.24 2758.59 1829.49"/>
      <polyline class="cls-102" points="1377.05 2101.08 1377.05 2098.84 2758.59 1826.12 2758.59 1828.37"/>
      <polyline class="cls-103" points="1377.05 2099.96 1375.93 2097.72 2757.47 1823.88 2758.59 1826.12"/>
      <polyline class="cls-103" points="1377.05 2097.72 1375.93 2095.47 2757.47 1822.76 2758.59 1825"/>
      <polyline class="cls-103" points="1375.93 2096.6 1375.93 2094.35 2757.47 1820.51 2757.47 1822.76"/>
      <polyline class="cls-103" points="1375.93 2094.35 1374.8 2092.11 2757.47 1819.39 2757.47 1821.63"/>
      <polyline class="cls-103" points="1375.93 2093.23 1374.8 2090.98 2756.35 1817.14 2757.47 1819.39"/>
      <polyline class="cls-140" points="1374.8 2090.98 1374.8 2088.74 2756.35 1816.02 2756.35 1818.27"/>
      <polyline class="cls-141" points="1374.8 2089.86 1374.8 2086.49 2756.35 1813.78 2756.35 1816.02"/>
      <polyline class="cls-141" points="1374.8 2087.62 1373.68 2085.37 2755.23 1812.66 2756.35 1814.9"/>
      <polyline class="cls-141" points="1373.68 2086.49 1373.68 2083.13 2755.23 1810.41 2755.23 1812.66"/>
      <polyline class="cls-141" points="1373.68 2084.25 1373.68 2082.01 2755.23 1809.29 2755.23 1811.53"/>
      <polyline class="cls-141" points="1373.68 2083.13 1372.56 2079.76 2754.1 1807.04 2755.23 1809.29"/>
      <polyline class="cls-141" points="1373.68 2080.88 1372.56 2078.64 2754.1 1805.92 2755.23 1808.17"/>
      <polyline class="cls-104" points="1372.56 2079.76 1372.56 2076.39 2754.1 1803.68 2754.1 1805.92"/>
      <polyline class="cls-104" points="1372.56 2077.52 1371.44 2075.27 2754.1 1802.55 2754.1 1804.8"/>
      <polyline class="cls-104" points="1372.56 2076.39 1371.44 2073.03 2752.98 1800.31 2754.1 1802.55"/>
      <polyline class="cls-83" points="1371.44 2074.15 1371.44 2071.91 2752.98 1799.19 2752.98 1801.43"/>
      <polyline class="cls-83" points="1371.44 2073.03 1371.44 2069.66 2752.98 1796.94 2752.98 1799.19"/>
      <polyline class="cls-83" points="1371.44 2070.78 1370.31 2068.54 2751.86 1794.7 2752.98 1798.07"/>
      <polyline class="cls-83" points="1370.31 2069.66 1370.31 2066.29 2751.86 1793.58 2751.86 1795.82"/>
      <polyline class="cls-83" points="1370.31 2067.42 1370.31 2065.17 2751.86 1791.33 2751.86 1794.7"/>
      <polyline class="cls-86" points="1370.31 2066.29 1369.19 2062.93 2750.74 1790.21 2751.86 1792.45"/>
      <polyline class="cls-86" points="1370.31 2064.05 1369.19 2061.8 2750.74 1787.96 2751.86 1791.33"/>
      <polyline class="cls-86" points="1369.19 2062.93 1369.19 2059.56 2750.74 1786.84 2750.74 1789.09"/>
      <polyline class="cls-86" points="1369.19 2060.68 1368.07 2058.44 2750.74 1784.6 2750.74 1787.96"/>
      <polyline class="cls-86" points="1369.19 2059.56 1368.07 2056.19 2749.61 1783.48 2750.74 1785.72"/>
      <polyline class="cls-24" points="1368.07 2057.32 1368.07 2055.07 2749.61 1781.23 2749.61 1784.6"/>
      <polyline class="cls-24" points="1368.07 2056.19 1368.07 2052.83 2749.61 1780.11 2749.61 1782.35"/>
      <polyline class="cls-24" points="1368.07 2053.95 1366.95 2051.7 2748.49 1777.86 2749.61 1781.23"/>
      <polyline class="cls-28" points="1366.95 2051.7 1366.95 2049.46 2748.49 1776.74 2749.61 1778.99"/>
      <polyline class="cls-28" points="1366.95 2050.58 1366.95 2048.34 2748.49 1774.5 2748.49 1777.86"/>
      <polyline class="cls-28" points="1366.95 2048.34 1365.83 2046.09 2747.37 1773.37 2748.49 1775.62"/>
      <polyline class="cls-28" points="1366.95 2047.21 1365.83 2044.97 2747.37 1771.13 2748.49 1774.5"/>
      <polyline class="cls-28" points="1365.83 2044.97 1365.83 2042.73 2747.37 1770.01 2747.37 1772.25"/>
      <polyline class="cls-28" points="1365.83 2043.85 1364.7 2041.6 2747.37 1767.76 2747.37 1771.13"/>
      <polyline class="cls-166" points="1365.83 2041.6 1364.7 2039.36 2746.25 1766.64 2747.37 1768.89"/>
      <polyline class="cls-171" points="1364.7 2040.48 1364.7 2038.24 2746.25 1764.4 2746.25 1767.76"/>
      <polyline class="cls-171" points="1364.7 2038.24 1364.7 2035.99 2746.25 1763.27 2746.25 1765.52"/>
      <polyline class="cls-171" points="1364.7 2037.11 1363.58 2034.87 2745.13 1761.03 2746.25 1764.4"/>
      <polyline class="cls-171" points="1363.58 2034.87 1363.58 2032.62 2745.13 1759.91 2746.25 1762.15"/>
      <polyline class="cls-171" points="1363.58 2033.75 1363.58 2031.5 2745.13 1757.66 2745.13 1759.91"/>
      <polyline class="cls-170" points="1363.58 2031.5 1362.46 2029.26 2744 1756.54 2745.13 1758.78"/>
      <polyline class="cls-170" points="1363.58 2030.38 1362.46 2028.14 2744 1754.3 2745.13 1756.54"/>
      <polyline class="cls-170" points="1362.46 2028.14 1362.46 2025.89 2744 1753.17 2744 1755.42"/>
      <polyline class="cls-169" points="1362.46 2027.01 1362.46 2024.77 2744 1750.93 2744 1753.17"/>
      <polyline class="cls-169" points="1362.46 2024.77 1361.34 2022.52 2742.88 1749.81 2744 1752.05"/>
      <polyline class="cls-169" points="1361.34 2023.65 1361.34 2021.4 2742.88 1747.56 2742.88 1749.81"/>
      <polyline class="cls-169" points="1361.34 2021.4 1361.34 2019.16 2742.88 1746.44 2742.88 1748.68"/>
      <polyline class="cls-169" points="1361.34 2020.28 1360.21 2018.03 2741.76 1744.2 2742.88 1746.44"/>
      <polyline class="cls-169" points="1360.21 2018.03 1360.21 2015.79 2741.76 1743.07 2742.88 1745.32"/>
      <polyline class="cls-169" points="1360.21 2016.91 1360.21 2013.55 2741.76 1740.83 2741.76 1743.07"/>
      <polyline class="cls-169" points="1360.21 2014.67 1359.09 2012.42 2740.64 1739.71 2741.76 1741.95"/>
      <polyline class="cls-172" points="1360.21 2013.55 1359.09 2010.18 2740.64 1737.46 2741.76 1739.71"/>
      <polyline class="cls-167" points="1359.09 2011.3 1359.09 2009.06 2740.64 1736.34 2740.64 1738.58"/>
      <polyline class="cls-167" points="1359.09 2010.18 1359.09 2006.81 2740.64 1734.09 2740.64 1736.34"/>
      <polyline class="cls-167" points="1359.09 2007.93 1357.97 2005.69 2739.51 1732.97 2740.64 1735.22"/>
      <polyline class="cls-167" points="1357.97 2006.81 1357.97 2003.45 2739.51 1730.73 2739.51 1732.97"/>
      <polyline class="cls-167" points="1357.97 2004.57 1357.97 2002.32 2739.51 1729.61 2739.51 1731.85"/>
      <polyline class="cls-167" points="1357.97 2003.45 1356.85 2000.08 2738.39 1727.36 2739.51 1729.61"/>
      <polyline class="cls-167" points="1356.85 2001.2 1356.85 1998.96 2738.39 1726.24 2739.51 1728.48"/>
      <polyline class="cls-168" points="1356.85 2000.08 1356.85 1996.71 2738.39 1723.99 2738.39 1726.24"/>
      <polyline class="cls-168" points="1356.85 1997.83 1355.72 1995.59 2737.27 1721.75 2738.39 1725.12"/>
      <polyline class="cls-113" points="1356.85 1996.71 1355.72 1993.34 2737.27 1720.63 2738.39 1722.87"/>
      <polyline class="cls-113" points="1355.72 1994.47 1355.72 1992.22 2737.27 1718.38 2737.27 1721.75"/>
      <polyline class="cls-113" points="1355.72 1993.34 1355.72 1989.98 2737.27 1717.26 2737.27 1719.5"/>
      <polyline class="cls-113" points="1355.72 1991.1 1354.6 1988.86 2736.15 1715.02 2737.27 1718.38"/>
      <polyline class="cls-113" points="1354.6 1989.98 1354.6 1986.61 2736.15 1713.89 2736.15 1716.14"/>
      <polyline class="cls-114" points="1354.6 1987.73 1354.6 1985.49 2736.15 1711.65 2736.15 1715.02"/>
      <polyline class="cls-114" points="1354.6 1986.61 1353.48 1983.24 2735.02 1710.53 2736.15 1712.77"/>
      <polyline class="cls-114" points="1353.48 1984.37 1353.48 1982.12 2735.02 1708.28 2736.15 1711.65"/>
      <polyline class="cls-114" points="1353.48 1983.24 1353.48 1979.88 2735.02 1707.16 2735.02 1709.4"/>
      <polyline class="cls-108" points="1353.48 1981 1352.36 1978.75 2735.02 1704.91 2735.02 1708.28"/>
      <polyline class="cls-108" points="1353.48 1978.75 1352.36 1976.51 2733.9 1703.79 2735.02 1706.04"/>
      <polyline class="cls-108" points="1352.36 1977.63 1352.36 1975.39 2733.9 1701.55 2733.9 1704.91"/>
      <polyline class="cls-108" points="1352.36 1975.39 1352.36 1973.14 2733.9 1700.43 2733.9 1702.67"/>
      <polyline class="cls-105" points="1352.36 1974.27 1351.24 1972.02 2732.78 1698.18 2733.9 1701.55"/>
      <polyline class="cls-105" points="1351.24 1972.02 1351.24 1969.78 2732.78 1697.06 2732.78 1699.3"/>
      <polyline class="cls-105" points="1351.24 1970.9 1351.24 1968.65 2732.78 1694.81 2732.78 1698.18"/>
      <polyline class="cls-105" points="1351.24 1968.65 1350.11 1966.41 2731.66 1693.69 2732.78 1695.94"/>
      <polyline class="cls-105" points="1350.11 1967.53 1350.11 1965.29 2731.66 1691.45 2732.78 1694.81"/>
      <polyline class="cls-117" points="1350.11 1965.29 1350.11 1963.04 2731.66 1690.32 2731.66 1692.57"/>
      <polyline class="cls-117" points="1350.11 1964.16 1348.99 1961.92 2731.66 1688.08 2731.66 1691.45"/>
      <polyline class="cls-117" points="1350.11 1961.92 1348.99 1959.68 2730.54 1686.96 2731.66 1689.2"/>
      <polyline class="cls-116" points="1348.99 1960.8 1348.99 1958.55 2730.54 1684.71 2730.54 1686.96"/>
      <polyline class="cls-116" points="1348.99 1958.55 1348.99 1956.31 2730.54 1683.59 2730.54 1685.84"/>
      <polyline class="cls-116" points="1348.99 1957.43 1347.87 1955.19 2729.41 1681.35 2730.54 1683.59"/>
      <polyline class="cls-116" points="1347.87 1955.19 1347.87 1952.94 2729.41 1680.22 2729.41 1682.47"/>
      <polyline class="cls-116" points="1347.87 1954.06 1347.87 1951.82 2729.41 1677.98 2729.41 1680.22"/>
      <polyline class="cls-116" points="1347.87 1951.82 1346.75 1949.57 2728.29 1676.86 2729.41 1679.1"/>
      <polyline class="cls-174" points="1347.87 1950.7 1346.75 1948.45 2728.29 1674.61 2729.41 1676.86"/>
      <polyline class="cls-174" points="1346.75 1948.45 1346.75 1946.21 2728.29 1673.49 2728.29 1675.74"/>
      <polyline class="cls-173" points="1346.75 1947.33 1345.62 1943.96 2728.29 1671.25 2728.29 1673.49"/>
      <polyline class="cls-173" points="1346.75 1945.09 1345.62 1942.84 2727.17 1670.12 2728.29 1672.37"/>
      <polyline class="cls-173" points="1345.62 1943.96 1345.62 1940.6 2727.17 1667.88 2727.17 1670.12"/>
      <polyline class="cls-173" points="1345.62 1941.72 1345.62 1939.47 2727.17 1666.76 2727.17 1669"/>
      <polyline class="cls-173" points="1345.62 1940.6 1344.5 1937.23 2726.05 1664.51 2727.17 1666.76"/>
      <polyline class="cls-173" points="1344.5 1938.35 1344.5 1936.11 2726.05 1663.39 2726.05 1665.63"/>
      <polyline class="cls-173" points="1344.5 1937.23 1344.5 1933.86 2726.05 1661.15 2726.05 1663.39"/>
      <polyline class="cls-176" points="1344.5 1934.99 1343.38 1932.74 2724.92 1660.02 2726.05 1662.27"/>
      <polyline class="cls-177" points="1344.5 1933.86 1343.38 1930.5 2724.92 1657.78 2726.05 1660.02"/>
      <polyline class="cls-177" points="1343.38 1931.62 1343.38 1929.37 2724.92 1656.66 2724.92 1658.9"/>
      <polyline class="cls-177" points="1343.38 1930.5 1342.26 1927.13 2724.92 1654.41 2724.92 1656.66"/>
      <polyline class="cls-177" points="1343.38 1928.25 1342.26 1926.01 2723.8 1652.17 2724.92 1655.53"/>
      <polyline class="cls-177" points="1342.26 1927.13 1342.26 1923.76 2723.8 1651.04 2723.8 1653.29"/>
      <polyline class="cls-177" points="1342.26 1924.88 1342.26 1922.64 2723.8 1648.8 2723.8 1652.17"/>
      <polyline class="cls-177" points="1342.26 1923.76 1341.14 1920.4 2722.68 1647.68 2723.8 1649.92"/>
      <polyline class="cls-175" points="1341.14 1921.52 1341.14 1919.27 2722.68 1645.43 2722.68 1648.8"/>
      <polyline class="cls-175" points="1341.14 1920.4 1341.14 1917.03 2722.68 1644.31 2722.68 1646.56"/>
      <polyline class="cls-178" points="1341.14 1918.15 1340.01 1915.91 2721.56 1642.07 2722.68 1645.43"/>
      <polyline class="cls-178" points="1341.14 1917.03 1340.01 1913.66 2721.56 1640.94 2722.68 1643.19"/>
      <polyline class="cls-178" points="1340.01 1914.78 1340.01 1912.54 2721.56 1638.7 2721.56 1642.07"/>
      <polyline class="cls-178" points="1340.01 1913.66 1338.89 1910.29 2721.56 1637.58 2721.56 1639.82"/>
      <polyline class="cls-178" points="1340.01 1911.42 1338.89 1909.17 2720.43 1635.33 2721.56 1638.7"/>
      <polyline class="cls-178" points="1338.89 1910.29 1338.89 1906.93 2720.43 1634.21 2720.43 1636.45"/>
      <polyline class="cls-165" points="1338.89 1908.05 1338.89 1905.81 2720.43 1631.97 2720.43 1635.33"/>
      <polyline class="cls-165" points="1338.89 1905.81 1337.77 1903.56 2719.31 1630.84 2720.43 1633.09"/>
      <polyline class="cls-165" points="1337.77 1904.68 1337.77 1902.44 2719.31 1628.6 2720.43 1631.97"/>
      <polyline class="cls-162" points="1337.77 1902.44 1337.77 1900.19 2719.31 1627.48 2719.31 1629.72"/>
      <polyline class="cls-162" points="1337.77 1901.32 1336.65 1899.07 2718.19 1625.23 2719.31 1628.6"/>
      <polyline class="cls-161" points="1337.77 1899.07 1336.65 1896.83 2718.19 1624.11 2719.31 1626.35"/>
      <polyline class="cls-161" points="1336.65 1897.95 1336.65 1895.7 2718.19 1621.86 2718.19 1625.23"/>
      <polyline class="cls-160" points="1336.65 1895.7 1335.52 1893.46 2718.19 1620.74 2718.19 1622.99"/>
      <polyline class="cls-160" points="1336.65 1894.58 1335.52 1892.34 2717.07 1618.5 2718.19 1621.86"/>
      <polyline class="cls-160" points="1335.52 1892.34 1335.52 1890.09 2717.07 1617.38 2717.07 1619.62"/>
      <polyline class="cls-160" points="1335.52 1891.22 1335.52 1888.97 2717.07 1615.13 2717.07 1618.5"/>
      <polyline class="cls-160" points="1335.52 1888.97 1334.4 1886.73 2715.95 1614.01 2717.07 1616.25"/>
      <polyline class="cls-164" points="1334.4 1887.85 1334.4 1885.6 2715.95 1611.76 2717.07 1614.01"/>
      <polyline class="cls-164" points="1334.4 1885.6 1334.4 1883.36 2715.95 1610.64 2715.95 1612.89"/>
      <polyline class="cls-164" points="1334.4 1884.48 1333.28 1882.24 2714.82 1608.4 2715.95 1610.64"/>
      <polyline class="cls-163" points="1334.4 1882.24 1333.28 1879.99 2714.82 1607.28 2715.95 1609.52"/>
      <polyline class="cls-163" points="1333.28 1881.11 1333.28 1878.87 2714.82 1605.03 2714.82 1607.28"/>
      <polyline class="cls-163" points="1333.28 1878.87 1333.28 1876.63 2714.82 1603.91 2714.82 1606.15"/>
      <polyline class="cls-163" points="1333.28 1877.75 1332.16 1875.5 2713.7 1601.66 2714.82 1603.91"/>
      <polyline class="cls-163" points="1332.16 1875.5 1332.16 1873.26 2713.7 1600.54 2713.7 1602.79"/>
      <polyline class="cls-163" points="1332.16 1874.38 1332.16 1871.01 2713.7 1598.3 2713.7 1600.54"/>
      <polyline class="cls-179" points="1332.16 1872.14 1331.03 1869.89 2712.58 1597.17 2713.7 1599.42"/>
      <polyline class="cls-179" points="1331.03 1871.01 1331.03 1867.65 2712.58 1594.93 2713.7 1597.17"/>
      <polyline class="cls-180" points="1331.03 1868.77 1331.03 1866.53 2712.58 1593.81 2712.58 1596.05"/>
      <polyline class="cls-180" points="1331.03 1867.65 1329.91 1864.28 2711.46 1591.56 2712.58 1593.81"/>
      <polyline class="cls-181" points="1331.03 1865.4 1329.91 1863.16 2711.46 1590.44 2712.58 1592.69"/>
      <polyline class="cls-181" points="1329.91 1864.28 1329.91 1860.91 2711.46 1588.2 2711.46 1590.44"/>
      <polyline class="cls-181" points="1329.91 1862.04 1329.91 1859.79 2711.46 1587.07 2711.46 1589.32"/>
      <polyline class="cls-181" points="1329.91 1860.91 1328.79 1857.55 2710.33 1584.83 2711.46 1587.07"/>
      <polyline class="cls-181" points="1328.79 1858.67 1328.79 1856.42 2710.33 1583.71 2710.33 1585.95"/>
      <polyline class="cls-182" points="1328.79 1857.55 1328.79 1854.18 2710.33 1581.46 2710.33 1583.71"/>
      <polyline class="cls-183" points="1328.79 1855.3 1327.67 1853.06 2709.21 1579.22 2710.33 1582.58"/>
      <polyline class="cls-183" points="1327.67 1854.18 1327.67 1850.81 2709.21 1578.1 2710.33 1580.34"/>
      <polyline class="cls-183" points="1327.67 1851.94 1327.67 1849.69 2709.21 1575.85 2709.21 1579.22"/>
      <polyline class="cls-183" points="1327.67 1850.81 1222.17 1314.36 2603.72 1041.64 2709.21 1576.97"/>
    </g>
  </g>
</svg>